<mxfile host="app.diagrams.net" modified="2021-06-05T12:09:29.655Z" agent="5.0 (X11; Linux x86_64) AppleWebKit/537.36 (KHTML, like Gecko) Chrome/90.0.4430.210 Safari/537.36" etag="WUQOIqXyHg2bSWoZzGNb" version="14.7.6" type="github">
  <diagram id="usJmKWdr_tLzzN1epcfk" name="Page-1">
    <mxGraphModel dx="326" dy="390" grid="1" gridSize="10" guides="1" tooltips="1" connect="1" arrows="1" fold="1" page="1" pageScale="1" pageWidth="850" pageHeight="1100" math="0" shadow="0">
      <root>
        <mxCell id="0" />
        <mxCell id="1" parent="0" />
        <mxCell id="dICTBoF0oqOa12W-orgk-1" value="Start" style="ellipse;whiteSpace=wrap;html=1;" parent="1" vertex="1">
          <mxGeometry x="416" y="40" width="128" height="50" as="geometry" />
        </mxCell>
        <mxCell id="dICTBoF0oqOa12W-orgk-2" value="Initialize UART&lt;br&gt;&amp;amp;&lt;br&gt;Initialize SPI as Master" style="rounded=0;whiteSpace=wrap;html=1;" parent="1" vertex="1">
          <mxGeometry x="145" y="180" width="140" height="90" as="geometry" />
        </mxCell>
        <mxCell id="dICTBoF0oqOa12W-orgk-3" value="&lt;span&gt;- Initialize LCD&lt;br&gt;&lt;/span&gt;- Initialize LED 1 &amp;amp; 2&lt;span&gt;&lt;br&gt;&lt;/span&gt;&lt;span&gt;- Initialize SPI as Slave&lt;br&gt;&lt;/span&gt;" style="rounded=0;whiteSpace=wrap;html=1;" parent="1" vertex="1">
          <mxGeometry x="676" y="179" width="140" height="90" as="geometry" />
        </mxCell>
        <mxCell id="dICTBoF0oqOa12W-orgk-4" value="Loop to&lt;br&gt;Transmit data to Slave and receive garbage data using SPI" style="rounded=0;whiteSpace=wrap;html=1;" parent="1" vertex="1">
          <mxGeometry x="145" y="310" width="140" height="80" as="geometry" />
        </mxCell>
        <mxCell id="dICTBoF0oqOa12W-orgk-5" value="Loop to receive data From Master&lt;br&gt;&amp;amp; Send garbage data to Master" style="rounded=0;whiteSpace=wrap;html=1;" parent="1" vertex="1">
          <mxGeometry x="677" y="310" width="140" height="80" as="geometry" />
        </mxCell>
        <mxCell id="dICTBoF0oqOa12W-orgk-6" value="Display Received&lt;br&gt;data to LCD" style="rhombus;whiteSpace=wrap;html=1;" parent="1" vertex="1">
          <mxGeometry x="680" y="700" width="135" height="130" as="geometry" />
        </mxCell>
        <mxCell id="dICTBoF0oqOa12W-orgk-7" value="Do we receive Data using UART?" style="rhombus;whiteSpace=wrap;html=1;" parent="1" vertex="1">
          <mxGeometry x="149" y="430" width="130" height="125" as="geometry" />
        </mxCell>
        <mxCell id="dICTBoF0oqOa12W-orgk-8" value="" style="endArrow=classic;html=1;entryX=0.5;entryY=0;entryDx=0;entryDy=0;exitX=0.5;exitY=1;exitDx=0;exitDy=0;" parent="1" source="dICTBoF0oqOa12W-orgk-4" target="dICTBoF0oqOa12W-orgk-7" edge="1">
          <mxGeometry width="50" height="50" relative="1" as="geometry">
            <mxPoint x="175" y="390" as="sourcePoint" />
            <mxPoint x="165" y="390" as="targetPoint" />
            <Array as="points" />
          </mxGeometry>
        </mxCell>
        <mxCell id="dICTBoF0oqOa12W-orgk-9" value="" style="endArrow=classic;startArrow=classic;html=1;entryX=0;entryY=0.5;entryDx=0;entryDy=0;exitX=1;exitY=0.5;exitDx=0;exitDy=0;" parent="1" source="dICTBoF0oqOa12W-orgk-4" target="dICTBoF0oqOa12W-orgk-5" edge="1">
          <mxGeometry width="50" height="50" relative="1" as="geometry">
            <mxPoint x="275" y="320" as="sourcePoint" />
            <mxPoint x="315" y="270" as="targetPoint" />
          </mxGeometry>
        </mxCell>
        <mxCell id="dICTBoF0oqOa12W-orgk-10" value="" style="endArrow=classic;html=1;entryX=0.5;entryY=0;entryDx=0;entryDy=0;" parent="1" target="dICTBoF0oqOa12W-orgk-3" edge="1">
          <mxGeometry width="50" height="50" relative="1" as="geometry">
            <mxPoint x="395" y="150" as="sourcePoint" />
            <mxPoint x="565" y="150" as="targetPoint" />
            <Array as="points">
              <mxPoint x="565" y="150" />
              <mxPoint x="746" y="150" />
            </Array>
          </mxGeometry>
        </mxCell>
        <mxCell id="dICTBoF0oqOa12W-orgk-11" value="" style="endArrow=none;html=1;entryX=0.5;entryY=1;entryDx=0;entryDy=0;" parent="1" target="dICTBoF0oqOa12W-orgk-1" edge="1">
          <mxGeometry width="50" height="50" relative="1" as="geometry">
            <mxPoint x="480" y="150" as="sourcePoint" />
            <mxPoint x="395" y="90" as="targetPoint" />
            <Array as="points" />
          </mxGeometry>
        </mxCell>
        <mxCell id="dICTBoF0oqOa12W-orgk-12" value="" style="endArrow=classic;html=1;entryX=0.5;entryY=0;entryDx=0;entryDy=0;" parent="1" target="dICTBoF0oqOa12W-orgk-2" edge="1">
          <mxGeometry width="50" height="50" relative="1" as="geometry">
            <mxPoint x="395" y="150" as="sourcePoint" />
            <mxPoint x="505" y="220" as="targetPoint" />
            <Array as="points">
              <mxPoint x="215" y="150" />
            </Array>
          </mxGeometry>
        </mxCell>
        <mxCell id="dICTBoF0oqOa12W-orgk-13" value="" style="endArrow=classic;html=1;exitX=0.5;exitY=1;exitDx=0;exitDy=0;entryX=0.5;entryY=0;entryDx=0;entryDy=0;" parent="1" source="dICTBoF0oqOa12W-orgk-2" target="dICTBoF0oqOa12W-orgk-4" edge="1">
          <mxGeometry width="50" height="50" relative="1" as="geometry">
            <mxPoint x="455" y="270" as="sourcePoint" />
            <mxPoint x="505" y="220" as="targetPoint" />
          </mxGeometry>
        </mxCell>
        <mxCell id="dICTBoF0oqOa12W-orgk-14" value="" style="endArrow=classic;html=1;exitX=0.5;exitY=1;exitDx=0;exitDy=0;entryX=0.5;entryY=0;entryDx=0;entryDy=0;" parent="1" source="dICTBoF0oqOa12W-orgk-3" target="dICTBoF0oqOa12W-orgk-5" edge="1">
          <mxGeometry width="50" height="50" relative="1" as="geometry">
            <mxPoint x="455" y="510" as="sourcePoint" />
            <mxPoint x="505" y="460" as="targetPoint" />
          </mxGeometry>
        </mxCell>
        <mxCell id="dICTBoF0oqOa12W-orgk-15" value="Check if LCD has 16 Character" style="rhombus;whiteSpace=wrap;html=1;" parent="1" vertex="1">
          <mxGeometry x="680" y="870" width="135" height="130" as="geometry" />
        </mxCell>
        <mxCell id="dICTBoF0oqOa12W-orgk-16" value="" style="endArrow=classic;html=1;exitX=0.5;exitY=1;exitDx=0;exitDy=0;entryX=0.5;entryY=0;entryDx=0;entryDy=0;" parent="1" source="dICTBoF0oqOa12W-orgk-6" target="dICTBoF0oqOa12W-orgk-15" edge="1">
          <mxGeometry width="50" height="50" relative="1" as="geometry">
            <mxPoint x="655" y="870" as="sourcePoint" />
            <mxPoint x="705" y="820" as="targetPoint" />
          </mxGeometry>
        </mxCell>
        <mxCell id="dICTBoF0oqOa12W-orgk-17" value="" style="endArrow=classic;html=1;exitX=0;exitY=0.5;exitDx=0;exitDy=0;entryX=0.5;entryY=0;entryDx=0;entryDy=0;" parent="1" source="dICTBoF0oqOa12W-orgk-15" target="dICTBoF0oqOa12W-orgk-19" edge="1">
          <mxGeometry width="50" height="50" relative="1" as="geometry">
            <mxPoint x="722" y="870" as="sourcePoint" />
            <mxPoint x="622" y="990" as="targetPoint" />
            <Array as="points">
              <mxPoint x="622" y="935" />
            </Array>
          </mxGeometry>
        </mxCell>
        <mxCell id="dICTBoF0oqOa12W-orgk-18" value="" style="endArrow=classic;html=1;exitX=1;exitY=0.5;exitDx=0;exitDy=0;entryX=0.5;entryY=0;entryDx=0;entryDy=0;" parent="1" source="dICTBoF0oqOa12W-orgk-15" target="dICTBoF0oqOa12W-orgk-20" edge="1">
          <mxGeometry width="50" height="50" relative="1" as="geometry">
            <mxPoint x="690" y="945" as="sourcePoint" />
            <mxPoint x="862" y="990" as="targetPoint" />
            <Array as="points">
              <mxPoint x="862" y="935" />
            </Array>
          </mxGeometry>
        </mxCell>
        <mxCell id="dICTBoF0oqOa12W-orgk-19" value="If NO&lt;br&gt;Do nothing" style="rounded=1;whiteSpace=wrap;html=1;" parent="1" vertex="1">
          <mxGeometry x="581" y="1000" width="82" height="40" as="geometry" />
        </mxCell>
        <mxCell id="dICTBoF0oqOa12W-orgk-20" value="If YES&lt;br&gt;Clear Display" style="rounded=1;whiteSpace=wrap;html=1;" parent="1" vertex="1">
          <mxGeometry x="821" y="1000" width="82" height="40" as="geometry" />
        </mxCell>
        <mxCell id="dICTBoF0oqOa12W-orgk-21" value="If it is &quot;1&quot;&lt;br&gt;Toggle LED_1" style="rhombus;whiteSpace=wrap;html=1;" parent="1" vertex="1">
          <mxGeometry x="547" y="540" width="110" height="100" as="geometry" />
        </mxCell>
        <mxCell id="dICTBoF0oqOa12W-orgk-22" value="Check Recieved&lt;br&gt;Data" style="rhombus;whiteSpace=wrap;html=1;" parent="1" vertex="1">
          <mxGeometry x="692" y="429" width="110" height="100" as="geometry" />
        </mxCell>
        <mxCell id="dICTBoF0oqOa12W-orgk-23" value="If it is &quot;2&quot;&lt;br&gt;Toggle LED_2" style="rhombus;whiteSpace=wrap;html=1;" parent="1" vertex="1">
          <mxGeometry x="692" y="540" width="110" height="100" as="geometry" />
        </mxCell>
        <mxCell id="dICTBoF0oqOa12W-orgk-24" value="" style="endArrow=classic;html=1;entryX=0.5;entryY=0;entryDx=0;entryDy=0;exitX=0;exitY=0.5;exitDx=0;exitDy=0;" parent="1" source="dICTBoF0oqOa12W-orgk-22" target="dICTBoF0oqOa12W-orgk-21" edge="1">
          <mxGeometry width="50" height="50" relative="1" as="geometry">
            <mxPoint x="685" y="480" as="sourcePoint" />
            <mxPoint x="600" y="500" as="targetPoint" />
            <Array as="points">
              <mxPoint x="602" y="480" />
            </Array>
          </mxGeometry>
        </mxCell>
        <mxCell id="dICTBoF0oqOa12W-orgk-25" value="If Data is&lt;br&gt;received from&lt;br&gt;UART" style="rhombus;whiteSpace=wrap;html=1;" parent="1" vertex="1">
          <mxGeometry x="272" y="551" width="106" height="99" as="geometry" />
        </mxCell>
        <mxCell id="dICTBoF0oqOa12W-orgk-26" value="If no Data&lt;br&gt;received from UART" style="rhombus;whiteSpace=wrap;html=1;" parent="1" vertex="1">
          <mxGeometry x="40" y="551" width="110" height="100" as="geometry" />
        </mxCell>
        <mxCell id="dICTBoF0oqOa12W-orgk-27" value="&lt;br&gt;Send Data Through SPI to Slave" style="rhombus;whiteSpace=wrap;html=1;" parent="1" vertex="1">
          <mxGeometry x="271" y="693" width="106" height="99" as="geometry" />
        </mxCell>
        <mxCell id="dICTBoF0oqOa12W-orgk-28" value="" style="endArrow=classic;html=1;exitX=0.5;exitY=1;exitDx=0;exitDy=0;entryX=0.5;entryY=0;entryDx=0;entryDy=0;" parent="1" source="dICTBoF0oqOa12W-orgk-25" target="dICTBoF0oqOa12W-orgk-27" edge="1">
          <mxGeometry width="50" height="50" relative="1" as="geometry">
            <mxPoint x="714" y="519" as="sourcePoint" />
            <mxPoint x="325" y="669" as="targetPoint" />
          </mxGeometry>
        </mxCell>
        <mxCell id="dICTBoF0oqOa12W-orgk-29" value="" style="endArrow=classic;html=1;exitX=0;exitY=0.5;exitDx=0;exitDy=0;entryX=0;entryY=0.75;entryDx=0;entryDy=0;" parent="1" edge="1">
          <mxGeometry width="50" height="50" relative="1" as="geometry">
            <mxPoint x="40" y="601" as="sourcePoint" />
            <mxPoint x="145" y="370" as="targetPoint" />
            <Array as="points">
              <mxPoint x="40" y="370" />
            </Array>
          </mxGeometry>
        </mxCell>
        <mxCell id="dICTBoF0oqOa12W-orgk-30" value="" style="endArrow=classic;html=1;exitX=0;exitY=0.5;exitDx=0;exitDy=0;entryX=0.5;entryY=0;entryDx=0;entryDy=0;" parent="1" source="dICTBoF0oqOa12W-orgk-7" target="dICTBoF0oqOa12W-orgk-26" edge="1">
          <mxGeometry width="50" height="50" relative="1" as="geometry">
            <mxPoint x="625" y="520" as="sourcePoint" />
            <mxPoint x="95" y="530" as="targetPoint" />
            <Array as="points">
              <mxPoint x="95" y="493" />
            </Array>
          </mxGeometry>
        </mxCell>
        <mxCell id="dICTBoF0oqOa12W-orgk-31" value="" style="endArrow=classic;html=1;exitX=1;exitY=0.5;exitDx=0;exitDy=0;entryX=0.5;entryY=0.091;entryDx=0;entryDy=0;entryPerimeter=0;" parent="1" source="dICTBoF0oqOa12W-orgk-7" target="dICTBoF0oqOa12W-orgk-25" edge="1">
          <mxGeometry width="50" height="50" relative="1" as="geometry">
            <mxPoint x="625" y="520" as="sourcePoint" />
            <mxPoint x="375" y="530" as="targetPoint" />
            <Array as="points">
              <mxPoint x="325" y="493" />
            </Array>
          </mxGeometry>
        </mxCell>
        <mxCell id="dICTBoF0oqOa12W-orgk-32" value="" style="endArrow=classic;html=1;exitX=1;exitY=0.5;exitDx=0;exitDy=0;entryX=1;entryY=0.75;entryDx=0;entryDy=0;" parent="1" source="dICTBoF0oqOa12W-orgk-27" target="dICTBoF0oqOa12W-orgk-4" edge="1">
          <mxGeometry width="50" height="50" relative="1" as="geometry">
            <mxPoint x="625" y="520" as="sourcePoint" />
            <mxPoint x="675" y="470" as="targetPoint" />
            <Array as="points">
              <mxPoint x="415" y="743" />
              <mxPoint x="415" y="370" />
            </Array>
          </mxGeometry>
        </mxCell>
        <mxCell id="dICTBoF0oqOa12W-orgk-33" value="" style="endArrow=none;html=1;exitX=0.5;exitY=1;exitDx=0;exitDy=0;entryX=0.5;entryY=1;entryDx=0;entryDy=0;" parent="1" source="dICTBoF0oqOa12W-orgk-21" target="dICTBoF0oqOa12W-orgk-35" edge="1">
          <mxGeometry width="50" height="50" relative="1" as="geometry">
            <mxPoint x="597" y="650" as="sourcePoint" />
            <mxPoint x="755" y="660" as="targetPoint" />
            <Array as="points">
              <mxPoint x="602" y="660" />
              <mxPoint x="890" y="660" />
            </Array>
          </mxGeometry>
        </mxCell>
        <mxCell id="dICTBoF0oqOa12W-orgk-34" value="" style="endArrow=classic;html=1;entryX=0.5;entryY=0;entryDx=0;entryDy=0;exitX=0.5;exitY=1;exitDx=0;exitDy=0;" parent="1" source="dICTBoF0oqOa12W-orgk-23" target="dICTBoF0oqOa12W-orgk-6" edge="1">
          <mxGeometry width="50" height="50" relative="1" as="geometry">
            <mxPoint x="748" y="670" as="sourcePoint" />
            <mxPoint x="675" y="830" as="targetPoint" />
          </mxGeometry>
        </mxCell>
        <mxCell id="dICTBoF0oqOa12W-orgk-35" value="If Else&lt;br&gt;Do Nothing" style="rhombus;whiteSpace=wrap;html=1;" parent="1" vertex="1">
          <mxGeometry x="835" y="540" width="110" height="100" as="geometry" />
        </mxCell>
        <mxCell id="dICTBoF0oqOa12W-orgk-36" value="" style="endArrow=classic;html=1;exitX=0.5;exitY=1;exitDx=0;exitDy=0;entryX=0.5;entryY=0;entryDx=0;entryDy=0;" parent="1" source="dICTBoF0oqOa12W-orgk-22" target="dICTBoF0oqOa12W-orgk-23" edge="1">
          <mxGeometry width="50" height="50" relative="1" as="geometry">
            <mxPoint x="803.231884057971" y="553.0289855072464" as="sourcePoint" />
            <mxPoint x="815" y="551" as="targetPoint" />
          </mxGeometry>
        </mxCell>
        <mxCell id="dICTBoF0oqOa12W-orgk-37" value="" style="endArrow=classic;html=1;exitX=1;exitY=0.5;exitDx=0;exitDy=0;entryX=0.5;entryY=0;entryDx=0;entryDy=0;" parent="1" source="dICTBoF0oqOa12W-orgk-22" target="dICTBoF0oqOa12W-orgk-35" edge="1">
          <mxGeometry width="50" height="50" relative="1" as="geometry">
            <mxPoint x="755" y="480" as="sourcePoint" />
            <mxPoint x="865" y="537" as="targetPoint" />
            <Array as="points">
              <mxPoint x="890" y="479" />
            </Array>
          </mxGeometry>
        </mxCell>
        <mxCell id="dICTBoF0oqOa12W-orgk-38" value="" style="endArrow=none;html=1;exitX=0.5;exitY=1;exitDx=0;exitDy=0;" parent="1" source="dICTBoF0oqOa12W-orgk-19" edge="1">
          <mxGeometry width="50" height="50" relative="1" as="geometry">
            <mxPoint x="645" y="1060" as="sourcePoint" />
            <mxPoint x="745" y="1070" as="targetPoint" />
            <Array as="points">
              <mxPoint x="622" y="1070" />
            </Array>
          </mxGeometry>
        </mxCell>
        <mxCell id="dICTBoF0oqOa12W-orgk-39" value="" style="endArrow=none;html=1;exitX=0.5;exitY=1;exitDx=0;exitDy=0;" parent="1" source="dICTBoF0oqOa12W-orgk-20" edge="1">
          <mxGeometry width="50" height="50" relative="1" as="geometry">
            <mxPoint x="865" y="1030" as="sourcePoint" />
            <mxPoint x="745" y="1070" as="targetPoint" />
            <Array as="points">
              <mxPoint x="862" y="1070" />
            </Array>
          </mxGeometry>
        </mxCell>
        <mxCell id="dICTBoF0oqOa12W-orgk-40" value="" style="endArrow=classic;html=1;entryX=1;entryY=0.5;entryDx=0;entryDy=0;" parent="1" target="dICTBoF0oqOa12W-orgk-5" edge="1">
          <mxGeometry width="50" height="50" relative="1" as="geometry">
            <mxPoint x="745" y="1070" as="sourcePoint" />
            <mxPoint x="1055" y="330" as="targetPoint" />
            <Array as="points">
              <mxPoint x="745" y="1110" />
              <mxPoint x="1055" y="1110" />
              <mxPoint x="1055" y="350" />
            </Array>
          </mxGeometry>
        </mxCell>
        <mxCell id="dICTBoF0oqOa12W-orgk-41" value="" style="endArrow=classic;html=1;entryX=0.5;entryY=0;entryDx=0;entryDy=0;exitX=0.5;exitY=1;exitDx=0;exitDy=0;" parent="1" source="dICTBoF0oqOa12W-orgk-5" target="dICTBoF0oqOa12W-orgk-22" edge="1">
          <mxGeometry width="50" height="50" relative="1" as="geometry">
            <mxPoint x="747" y="400" as="sourcePoint" />
            <mxPoint x="665" y="560" as="targetPoint" />
          </mxGeometry>
        </mxCell>
      </root>
    </mxGraphModel>
  </diagram>
</mxfile>
